<svg id="Capa_1" enable-background="new 0 0 512 512" height="512" viewBox="0 0 512 512" width="512" xmlns="http://www.w3.org/2000/svg"><g><g><path d="m71.14 338.252c4.142 0 7.5-3.358 7.5-7.5v-79.803c0-29.842 24.278-54.12 54.12-54.12s54.12 24.278 54.12 54.12v19.193c0 4.142 3.358 7.5 7.5 7.5s7.5-3.358 7.5-7.5v-100.006c0-29.842 24.278-54.12 54.12-54.12s54.12 24.278 54.12 54.12v19.193c0 4.142 3.358 7.5 7.5 7.5s7.5-3.358 7.5-7.5v-57.579c0-16.202 7.37-31.528 19.666-41.726l4.208 13.253 30.246-33.147-43.827-9.626 4.561 14.365c-17.34 12.009-28.368 31.476-29.712 52.528-12.669-16.049-32.275-26.381-54.262-26.381-38.113 0-69.12 31.007-69.12 69.12v37.893c-12.673-15.946-32.215-26.2-54.12-26.2-38.113 0-69.12 31.007-69.12 69.12v79.803c0 4.142 3.358 7.5 7.5 7.5z"/><path d="m502.479 183.464c4.142 0 7.5-3.358 7.5-7.5v-35.123c0-4.142-3.358-7.5-7.5-7.5h-79.374v-55.711h79.374c2.776 0 5.325-1.533 6.625-3.985 1.301-2.453 1.141-5.423-.416-7.721l-18.364-27.108 18.364-27.108c1.557-2.298 1.717-5.269.416-7.721-1.3-2.454-3.849-3.987-6.625-3.987h-86.874c-4.142 0-7.5 3.358-7.5 7.5v125.841h-28.865c-4.142 0-7.5 3.358-7.5 7.5v73.313h-115.74c-4.142 0-7.5 3.358-7.5 7.5v73.313h-115.74c-4.142 0-7.5 3.358-7.5 7.5v53.11h-115.739c-4.142 0-7.5 3.358-7.5 7.5v38.048c0 4.142 3.358 7.5 7.5 7.5s7.5-3.358 7.5-7.5v-30.548h108.24v126.423h-108.24v-60.804c0-4.142-3.358-7.5-7.5-7.5s-7.5 3.358-7.5 7.5v68.304c0 4.142 3.358 7.5 7.5 7.5h492.959c4.142 0 7.5-3.358 7.5-7.5v-293.433c0-4.142-3.358-7.5-7.5-7.5s-7.5 3.358-7.5 7.5v285.933h-108.24v-348.659h108.24v27.623c-.001 4.142 3.357 7.5 7.499 7.5zm-27.422-140.443 13.283 19.609h-65.234v-47.63h65.234l-13.283 19.608c-1.721 2.541-1.721 5.873 0 8.413zm-334.797 320.056v-53.11h108.24v46.385c0 4.142 3.358 7.5 7.5 7.5s7.5-3.358 7.5-7.5v-127.198h108.24v267.846h-108.24v-105.571c0-4.142-3.358-7.5-7.5-7.5s-7.5 3.358-7.5 7.5v105.571h-108.24z"/></g></g></svg>